<svg width="674" height="682" viewBox="0 0 674 682" fill="none" xmlns="http://www.w3.org/2000/svg">
<path d="M197.061 450.704L267.245 467.984L317.298 525.337L376.907 486.761L450.291 492.288L464.407 420.454L518.135 370.918L478.49 307.905L481.089 232.324L410.905 215.044L360.852 157.692L301.244 196.267L227.859 190.74L213.743 262.574L160.015 312.11L199.66 375.123L197.061 450.704Z" fill="#028391" fill-opacity="0.53"/>
<path d="M251.587 492.785L318.613 481.944L382.104 514.885L420.475 457.578L486.188 434.915L473.426 364.71L502.866 299.718L446.447 257.742L422.369 188.493L355.343 199.334L291.851 166.393L253.481 223.7L187.768 246.363L200.53 316.567L171.09 381.559L227.508 423.536L251.587 492.785Z" fill="#FFE4B3" fill-opacity="0.34"/>
<path d="M254.942 486.765L319.176 476.376L380.022 507.945L416.794 453.025L479.768 431.306L467.538 364.027L495.751 301.743L441.684 261.516L418.609 195.152L354.376 205.541L293.529 173.972L256.757 228.892L193.783 250.611L206.013 317.89L177.8 380.174L231.867 420.401L254.942 486.765Z" fill="#081B37"/>
<path d="M265.786 469.847L321.283 457.659L374.093 487.921L404.127 437.973L460.975 420.78L447.953 362.331L475.54 307.755L427.089 275.044L409.254 215.054L353.756 227.242L300.947 196.98L270.913 246.928L214.064 264.121L227.086 322.57L199.5 377.146L247.951 409.857L265.786 469.847Z" fill="#028391" fill-opacity="0.53"/>
<path d="M276.262 454.212L324.678 443.352L370.623 469.667L396.956 425.835L446.565 410.589L435.389 359.461L459.602 311.585L417.464 283.111L402.098 230.651L353.681 241.51L307.736 215.195L281.404 259.028L231.794 274.273L242.97 325.401L218.757 373.277L260.895 401.751L276.262 454.212Z" fill="#FFE4B3" fill-opacity="0.34"/>
<path d="M284.246 437.753L325.863 428.613L365.465 451.311L387.986 413.851L430.617 400.958L420.85 357.122L441.535 316.191L405.201 291.656L391.825 246.664L350.208 255.804L310.605 233.106L288.084 270.566L245.454 283.458L255.221 327.295L234.535 368.226L270.869 392.761L284.246 437.753Z" fill="#028391"/>
<path d="M294.173 422.083L328.541 413.894L361.495 432.225L379.835 400.74L415.012 389.415L406.581 353.076L423.374 318.729L393.11 298.824L381.683 261.575L347.315 269.763L314.361 251.433L296.02 282.918L260.844 294.243L269.275 330.581L252.481 364.929L282.745 384.834L294.173 422.083Z" fill="#081B37"/>
<path fill-rule="evenodd" clip-rule="evenodd" d="M416.739 389.357L259.735 294.803L416.739 389.357Z" fill="white" fill-opacity="0.7"/>
<path d="M416.739 389.357L259.735 294.803" stroke="#028391" stroke-width="9.99999"/>
<path fill-rule="evenodd" clip-rule="evenodd" d="M361.205 431.514L313.084 249.555L361.205 431.514Z" fill="white" fill-opacity="0.7"/>
<path d="M361.205 431.514L313.084 249.555" stroke="#028391" stroke-width="9.99999"/>
<path fill-rule="evenodd" clip-rule="evenodd" d="M250.389 365.832L428.577 317.398L250.389 365.832Z" fill="white" fill-opacity="0.7"/>
<path d="M250.389 365.832L428.577 317.398" stroke="#028391" stroke-width="10"/>
<path fill-rule="evenodd" clip-rule="evenodd" d="M293.485 421.63L382.037 262.31L293.485 421.63Z" fill="white"/>
<path d="M293.485 421.63L382.037 262.31" stroke="#028391" stroke-width="9.99999"/>
</svg>
