<svg width="843" height="1166" viewBox="0 0 843 1166" fill="none" xmlns="http://www.w3.org/2000/svg">
<path d="M520.239 556.85L705.521 602.469L837.66 753.877L995.026 652.039L1188.76 666.629L1226.02 476.99L1367.87 346.216L1263.2 179.863L1270.06 -19.6705L1084.78 -65.2895L952.643 -216.698L795.277 -114.86L601.544 -129.45L564.278 60.1887L422.436 190.963L527.1 357.316L520.239 556.85Z" fill="#081B37"/>
<path d="M664.184 667.941L841.13 639.322L1008.75 726.286L1110.04 574.996L1283.52 515.165L1249.83 329.827L1327.55 158.25L1178.61 47.4335L1115.05 -135.383L938.098 -106.764L770.481 -193.727L669.184 -42.4374L495.704 17.3935L529.395 202.731L451.674 374.308L600.617 485.125L664.184 667.941Z" fill="#FFFEFE" fill-opacity="0.7"/>
<path d="M673.043 652.048L842.617 624.622L1003.25 707.962L1100.33 562.976L1266.58 505.638L1234.29 328.023L1308.77 163.594L1166.04 57.3953L1105.12 -117.804L935.545 -90.377L774.912 -173.717L677.835 -28.731L511.583 28.607L543.87 206.222L469.388 370.65L612.125 476.849L673.043 652.048Z" fill="#081B37"/>
<path d="M701.669 607.385L848.181 575.208L987.597 655.1L1066.89 523.238L1216.97 477.85L1182.59 323.545L1255.41 179.466L1127.51 93.1087L1080.42 -65.2627L933.909 -33.0861L794.494 -112.978L715.204 18.8845L565.125 64.2721L599.504 218.577L526.676 362.656L654.584 449.014L701.669 607.385Z" fill="white" fill-opacity="0.7"/>
<path d="M729.327 566.108L857.145 537.438L978.439 606.909L1047.96 491.193L1178.92 450.945L1149.42 315.968L1213.34 189.578L1102.1 114.406L1061.53 -24.0883L933.712 4.58129L812.418 -64.8897L742.9 50.8264L611.933 91.0743L641.438 226.052L577.516 352.442L688.759 427.613L729.327 566.108Z" fill="#081B37"/>
<path d="M750.403 522.658L860.271 498.529L964.821 558.451L1024.28 459.557L1136.82 425.521L1111.03 309.793L1165.64 201.736L1069.72 136.966L1034.41 18.187L924.542 42.3154L819.992 -17.6064L760.536 81.2872L647.993 115.324L673.778 231.052L619.169 339.108L715.09 403.879L750.403 522.658Z" fill="white"/>
<path d="M776.61 481.289L867.342 459.672L954.34 508.065L1002.76 424.945L1095.62 395.046L1073.37 299.114L1117.7 208.437L1037.8 155.889L1007.64 57.552L916.905 79.1692L829.907 30.7764L781.489 113.896L688.623 143.795L710.881 239.728L666.547 330.404L746.443 382.952L776.61 481.289Z" fill="#081B37"/>
<path fill-rule="evenodd" clip-rule="evenodd" d="M1100.18 394.894L685.696 145.273L1100.18 394.894Z" fill="white" fill-opacity="0.7"/>
<path d="M1100.18 394.894L685.696 145.273" stroke="white" stroke-width="9.99999"/>
<path fill-rule="evenodd" clip-rule="evenodd" d="M953.574 506.188L826.536 25.8186L953.574 506.188Z" fill="white" fill-opacity="0.7"/>
<path d="M953.574 506.188L826.536 25.8186" stroke="white" stroke-width="9.99999"/>
<path fill-rule="evenodd" clip-rule="evenodd" d="M661.022 332.788L1131.43 204.925L661.022 332.788Z" fill="white" fill-opacity="0.7"/>
<path d="M661.022 332.788L1131.43 204.925" stroke="white" stroke-width="10"/>
<path fill-rule="evenodd" clip-rule="evenodd" d="M774.794 480.094L1008.57 59.4912L774.794 480.094Z" fill="white"/>
<path d="M774.794 480.094L1008.57 59.4912" stroke="white" stroke-width="9.99999"/>
</svg>
