<svg width="93" height="92" viewBox="0 0 93 92" fill="none" xmlns="http://www.w3.org/2000/svg">
<g clip-path="url(#clip0_441_111)">
<mask id="mask0_441_111" style="mask-type:luminance" maskUnits="userSpaceOnUse" x="0" y="0" width="93" height="92">
<path d="M0.680176 0H92.6354V91.9552H0.680176V0Z" fill="white"/>
</mask>
<g mask="url(#mask0_441_111)">
<path d="M46.3283 0C22.9793 0 24.4353 10.1764 24.4353 10.1764L24.4621 20.7206H46.7382V23.8854H15.6229C15.6229 23.8854 0.680176 22.1804 0.680176 45.8588C0.680176 69.5373 13.7187 68.6944 13.7187 68.6944H21.4965V57.7095C21.4965 57.7095 21.0789 44.6059 34.3319 44.6059H56.4242C56.4242 44.6059 68.8381 44.8052 68.8381 32.5445V12.2684C68.8381 12.2684 70.7232 0 46.3283 0ZM34.0446 7.08821C36.2592 7.08821 38.0523 8.889 38.0523 11.1189C38.0523 13.345 36.2592 15.1458 34.0446 15.1458C31.83 15.1458 30.0369 13.345 30.0369 11.1189C30.0369 8.889 31.8262 7.08821 34.0446 7.08821Z" fill="#EEEEEE"/>
<path d="M46.9909 91.9554C70.3322 91.9554 68.8762 81.779 68.8762 81.779L68.8494 71.2348H46.5733V68.07H77.6963C77.6963 68.07 92.639 69.775 92.639 46.0966C92.639 22.4181 79.5967 23.261 79.5967 23.261H71.8188V34.2459C71.8188 34.2459 72.2364 47.3495 58.9834 47.3495H36.895C36.895 47.3495 24.481 47.1502 24.481 59.4109V79.687C24.481 79.687 22.596 91.9554 46.9909 91.9554ZM59.2746 84.8672C57.0562 84.8672 55.2669 83.0664 55.2669 80.8365C55.2669 78.6104 57.0562 76.8096 59.2746 76.8096C61.4892 76.8096 63.2823 78.6104 63.2823 80.8365C63.2823 83.0664 61.4892 84.8672 59.2746 84.8672Z" fill="#EEEEEE"/>
</g>
</g>
<defs>
<clipPath id="clip0_441_111">
<rect width="91.9552" height="91.9552" fill="white" transform="translate(0.680176)"/>
</clipPath>
</defs>
</svg>
