<svg width="93" height="92" viewBox="0 0 93 92" fill="none" xmlns="http://www.w3.org/2000/svg">
<path d="M65.333 3.83154C61.9606 3.8631 58.6072 4.33977 55.3597 5.24919L55.1298 5.31815C53.085 4.96754 51.0163 4.77412 48.942 4.7396C44.6775 4.6668 41.0108 5.67065 38.0606 7.345C35.1487 6.36414 29.1103 4.67447 22.7462 5.01163C18.3132 5.24535 13.4779 6.55188 9.8955 10.2224C6.32074 13.893 4.43183 19.5712 4.8303 27.2993C4.93758 29.4334 5.56211 32.9085 6.60427 37.4143C7.63876 41.9163 9.10238 47.1846 10.9223 51.9931C12.7423 56.8015 14.7385 61.1273 17.8573 64.0622C19.4129 65.5335 21.5546 66.771 24.0796 66.6676C25.8535 66.5986 27.4589 65.8438 28.8421 64.7288C29.5164 65.5909 30.2367 65.9664 30.8919 66.3151C31.7157 66.7519 32.5203 67.0507 33.3517 67.25C35.6541 67.8404 38.0522 67.959 40.4016 67.5986C41.4246 67.4339 42.5013 67.112 43.5741 66.6522C43.6124 67.8093 43.6584 68.9435 43.7082 70.0929C43.8538 73.7328 43.9496 77.093 45.076 80.0394C45.2561 80.5221 45.7504 83.0011 47.7082 85.1889C49.6623 87.3805 53.4937 88.7445 57.854 87.8403C60.9306 87.2004 64.8464 86.0471 67.4441 82.4609C70.0112 78.9129 71.1721 73.8248 71.402 65.5679C71.4595 65.1235 71.5285 64.7442 71.6012 64.3879L72.2143 64.4415H72.2832C75.5668 64.5871 79.1301 64.135 82.1071 62.794C84.7432 61.6062 86.7355 60.4108 88.1877 58.2843C88.5517 57.7594 88.9501 57.1234 89.0574 56.0238C89.1647 54.9318 88.521 53.2153 87.4444 52.426C85.2872 50.8398 83.9347 51.4413 82.4826 51.7364C81.0522 52.0429 79.6013 52.2127 78.1301 52.2459C82.3179 45.4106 85.3179 38.1461 87.0306 31.7169C88.0421 27.9238 88.613 24.4257 88.6589 21.3682C88.7049 18.3107 88.4482 15.6018 86.5593 13.2569C80.655 5.93885 72.3522 3.91584 65.9307 3.84687C65.7314 3.84176 65.5322 3.84048 65.333 3.84304V3.83154ZM65.1644 6.08061C71.2373 6.02314 78.9998 7.67833 84.5708 14.5865C85.8236 16.1382 86.1953 18.4064 86.1532 21.2034C86.1072 23.9965 85.5746 27.3376 84.6014 31.0005C82.7125 38.0963 79.1416 46.3646 74.1109 53.79C74.2895 53.9138 74.4824 54.0155 74.6856 54.0927C75.7354 54.5142 78.1262 54.8743 82.9041 53.9241C84.1033 53.6751 84.9846 53.5103 85.8964 54.1847C86.1147 54.3658 86.288 54.5949 86.403 54.8541C86.518 55.1133 86.5715 55.3956 86.5593 55.6789C86.5086 56.1069 86.3461 56.5139 86.088 56.859C85.1685 58.2039 83.3447 59.4797 81.0075 60.5296C78.9423 61.4644 75.9768 61.951 73.3484 61.9817C72.0304 61.9932 70.8158 61.8936 69.7851 61.5832L69.7162 61.5602C69.3177 65.2806 68.402 72.6332 67.8081 75.9857C67.3292 78.6907 66.4939 80.8402 64.8962 82.4494C63.3023 84.0586 61.0494 85.028 58.0149 85.6601C54.2562 86.4418 51.5167 85.5988 49.7504 84.1544C47.9879 82.7176 47.1795 80.8057 46.6929 79.6333C46.3596 78.8286 46.1871 77.7827 46.0186 76.3842C45.8332 74.7098 45.7092 73.0292 45.6469 71.3458C45.5369 68.3944 45.5012 65.4407 45.5396 62.4874C43.9687 63.8783 42.0147 64.8055 39.9189 65.1541C37.4284 65.5641 35.1985 65.1618 33.869 64.84C33.2172 64.6793 32.5869 64.4413 31.9916 64.1311C31.3709 63.8131 30.7846 63.453 30.3938 62.7403C30.1636 62.3335 30.09 61.8566 30.1869 61.3993C30.3124 60.9348 30.5904 60.5259 30.9762 60.2384C31.6965 59.6713 32.6429 59.3571 34.072 59.0659C36.6774 58.5487 37.5855 58.1924 38.1372 57.7671C38.6085 57.4031 39.1411 56.6674 40.0836 55.5831L40.0721 55.4414C38.3924 55.3921 36.7457 54.9624 35.256 54.1847C34.7157 54.7364 31.9417 57.5832 28.5586 61.5296C27.1371 63.1809 25.5662 64.1273 23.9072 64.1963C22.2481 64.2652 20.75 63.453 19.478 62.2576C16.9301 59.8591 14.8994 55.7326 13.1293 51.0697C11.3668 46.403 9.92615 41.2075 8.90698 36.7821C7.88015 32.3568 7.27477 28.7897 7.19048 27.0694C6.80733 19.7551 8.56981 14.8278 11.5967 11.7205C14.6235 8.61321 18.7692 7.43312 22.8152 7.2109C30.072 6.80476 36.9648 9.26073 38.3595 9.78947C41.0453 8.01933 44.5051 6.91587 48.8308 6.98484C50.8811 7.01335 52.9219 7.27037 54.9152 7.75113L54.988 7.72048C55.8667 7.42163 56.7582 7.1713 57.6624 6.96951C60.124 6.41389 62.6372 6.11852 65.1606 6.08828L65.1644 6.08061ZM65.7123 8.43313H65.1874C63.1144 8.46106 61.0488 8.68686 59.0187 9.10747C63.0484 10.8626 66.5889 13.5745 69.333 17.008C70.9954 19.062 72.3743 21.3301 73.4327 23.7513C73.8312 24.6785 74.0994 25.464 74.2488 26.0694C74.3254 26.3759 74.3791 26.6326 74.3944 26.9008C74.4085 27.0706 74.3943 27.2415 74.3522 27.4065L74.3292 27.4525C74.4404 30.5292 73.6549 32.6135 73.5591 35.5484C73.4863 37.6787 74.0457 40.1807 74.1837 42.9048C74.3139 45.4719 73.9959 48.288 72.2794 51.0544C72.4225 51.2229 72.5604 51.3915 72.6932 51.5601C77.2335 44.6252 80.5094 36.9469 82.2527 30.4066C83.1838 26.8816 83.6819 23.69 83.724 21.1613C83.7623 18.6325 83.2757 16.7972 82.655 16.0348C77.7967 10.0079 71.2258 8.47528 65.7123 8.43313ZM48.3749 9.3297C44.0952 9.33736 41.0223 10.5941 38.6966 12.4715C36.2943 14.4141 34.6851 17.0693 33.6276 19.7934C32.604 22.5158 31.9782 25.3715 31.7693 28.2725L31.8191 28.2456C33.1103 27.5407 34.8077 26.8395 36.6238 26.4334C38.4437 26.0272 40.4016 25.9008 42.1756 26.5675C43.9496 27.2341 45.417 28.805 45.9496 31.1882C48.4975 42.629 45.1565 46.8819 43.9227 50.0888C43.4599 51.2527 43.0609 52.4409 42.7273 53.6483C42.8806 53.6048 43.0351 53.5742 43.1909 53.5563C43.864 53.5199 44.5355 53.6516 45.145 53.9394C46.3864 54.4375 47.237 55.4797 47.6967 56.6751C47.8168 56.9918 47.9024 57.3239 47.9534 57.6713C48.0045 57.8169 48.0288 57.9663 48.0262 58.1196C47.8885 62.4943 47.9039 66.8725 48.0722 71.2462C48.1565 73.1389 48.2791 74.8018 48.4362 76.116C48.5895 77.4263 48.8117 78.4225 48.9535 78.7597C49.4132 79.8861 50.0914 81.3574 51.3175 82.3574C52.5435 83.3574 54.2945 84.0203 57.5015 83.3536C60.2831 82.775 61.9996 81.9743 63.149 80.8133C64.2908 79.6601 64.9766 78.0547 65.4134 75.5911C66.0686 71.9014 67.3866 61.2077 67.5437 59.1924C67.4748 57.679 67.7046 56.5104 68.2027 55.6215C68.72 54.7096 69.5169 54.1502 70.2028 53.8475C70.5476 53.6942 70.8694 53.5946 71.1338 53.5218C70.8521 53.1321 70.5582 52.7513 70.2526 52.38C69.2618 51.221 68.4495 49.9206 67.8426 48.5218C67.5502 47.9463 67.2397 47.3802 66.9115 46.8244C66.4326 45.9815 65.8234 44.9278 65.1874 43.7439C63.9115 41.3722 62.5245 38.4986 61.8042 35.6978C61.0877 32.9047 60.9804 30.0119 62.8195 27.9698C64.4517 26.1575 67.31 25.4065 71.6051 25.828C71.4786 25.4602 71.402 25.1536 71.1874 24.6632C70.2182 22.4371 68.9512 20.3529 67.4211 18.4677C63.7812 13.9543 57.8923 9.47912 48.7887 9.33353H48.3749V9.3297ZM24.3286 9.50977C23.8689 9.50977 23.4091 9.52255 22.9493 9.54809C19.2941 9.75116 15.8381 10.7818 13.3668 13.3259C10.8878 15.8662 9.25947 20.0348 9.61197 26.9391C9.68477 28.2418 10.271 31.9047 11.2748 36.2496C12.2787 40.6021 13.704 45.7171 15.4128 50.2344C17.1216 54.7555 19.1983 58.6905 21.1677 60.5526C22.16 61.4836 23.0221 61.8591 23.8037 61.8284C24.5892 61.7901 25.5317 61.3533 26.6888 60.0085C28.7961 57.5425 30.9811 55.1441 33.2406 52.8168C31.6442 51.4781 30.4152 49.7546 29.6697 47.8091C28.9303 45.8821 28.7058 43.7956 29.0183 41.7554C29.39 39.1576 29.4398 36.7285 29.3977 34.8128C29.3517 32.943 29.2137 31.7016 29.2137 30.9238V30.8166C29.2098 26.7672 29.9353 22.7503 31.3555 18.9582C32.367 16.3451 33.8766 13.6899 36.141 11.5405C33.9188 10.8316 29.9724 9.75116 25.7003 9.54809C25.2409 9.52349 24.781 9.51072 24.321 9.50977H24.3286ZM69.2104 28.0617C66.7544 28.0924 65.3751 28.7092 64.651 29.5139C63.6241 30.6556 63.5284 32.6557 64.1644 35.1231C64.8004 37.5906 66.1069 40.3531 67.3407 42.6443C67.9537 43.7937 68.5514 44.8282 69.0342 45.6635C69.5208 46.5064 69.8771 47.1041 70.0917 47.6175C70.296 48.0799 70.5106 48.5026 70.7353 48.8857C71.6855 46.9355 71.858 45.0236 71.7583 43.0274C71.6319 40.56 71.0419 38.035 71.13 35.4794C71.2258 32.4909 71.835 30.5407 71.8886 28.2303C70.9999 28.122 70.1057 28.0657 69.2104 28.0617ZM39.4016 28.464C38.6511 28.4697 37.9034 28.5571 37.1717 28.7246C35.7171 29.0675 34.3132 29.5982 32.9954 30.3031C32.5535 30.533 32.132 30.7999 31.731 31.1039L31.6544 31.1729C31.6774 31.6863 31.7808 32.9315 31.8268 34.7591C31.8651 36.763 31.8191 39.3186 31.4207 42.0772C30.5548 48.085 35.0452 53.0582 40.325 53.0659C40.6315 51.8321 41.1411 50.5831 41.6469 49.2651C43.1181 45.4221 46.0109 42.6213 43.5741 31.6825C43.1756 29.8932 42.3863 29.169 41.2982 28.7591C40.6889 28.5475 40.0464 28.4475 39.4016 28.464ZM68.061 29.1805H68.2449C68.485 29.1882 68.7021 29.2137 68.8962 29.2571C69.0724 29.2926 69.241 29.3587 69.3943 29.4526C69.4641 29.4936 69.5244 29.549 69.5713 29.6151C69.6182 29.6811 69.6506 29.7563 69.6664 29.8357V29.8664C69.6764 30.0347 69.6306 30.2017 69.5361 30.3415C69.4292 30.5347 69.295 30.7114 69.1376 30.8664C68.7663 31.2604 68.2767 31.5227 67.743 31.6135C67.2197 31.6755 66.6918 31.5462 66.2563 31.2495C66.0811 31.1338 65.9225 30.9945 65.7851 30.8357C65.6688 30.7117 65.5893 30.5578 65.5552 30.3913C65.5469 30.3093 65.5562 30.2265 65.5827 30.1485C65.6091 30.0705 65.652 29.9991 65.7085 29.9391C65.8309 29.8106 65.9748 29.7043 66.1337 29.625C66.7406 29.3463 67.3973 29.1926 68.0648 29.1729L68.061 29.1805ZM39.7541 29.7706C39.9457 29.7706 40.1462 29.7859 40.3556 29.8165C40.9074 29.8932 41.4016 30.0349 41.7771 30.2457C41.961 30.3402 42.122 30.4641 42.2599 30.6173C42.3314 30.7016 42.385 30.7948 42.4208 30.897C42.4566 30.9992 42.4681 31.1052 42.4553 31.215C42.4205 31.4182 42.3257 31.6063 42.1833 31.7553C42.035 31.9337 41.8606 32.0888 41.666 32.215C41.1902 32.5391 40.6129 32.6793 40.0415 32.6097C39.4617 32.5161 38.9286 32.2347 38.5242 31.8089C38.3561 31.6374 38.2117 31.4441 38.0951 31.2342C37.9758 31.0505 37.923 30.8314 37.9457 30.6135C37.9993 30.2303 38.325 30.0388 38.6353 29.9238C38.9941 29.81 39.3707 29.7633 39.7464 29.7859L39.7541 29.7706ZM72.5514 55.564H72.54C72.0074 55.7556 71.5706 55.8322 71.1989 55.9855C70.8287 56.1228 70.5219 56.3914 70.3369 56.7402C70.107 57.1426 69.9154 57.859 69.9729 59.0774C70.1379 59.1864 70.3189 59.2691 70.5093 59.3227C71.1261 59.5066 72.1645 59.6292 73.3254 59.61C75.632 59.5832 78.4749 59.0621 79.9845 58.3801C81.2221 57.8207 82.3715 57.0927 83.3983 56.2192C78.3523 57.2307 75.5055 56.9625 73.7545 56.2613C73.3226 56.0851 72.9177 55.8529 72.5514 55.564ZM43.4783 55.8897H43.4017C43.2101 55.905 42.9304 55.9663 42.394 56.5487C41.1296 57.9203 40.6928 58.7786 39.6507 59.5832C38.6162 60.3878 37.2637 60.8131 34.5663 61.3495C33.7119 61.5181 33.2253 61.7058 32.8958 61.8552C33.0031 61.9395 32.9916 61.9625 33.1487 62.043C33.5433 62.2537 34.0529 62.4376 34.459 62.5411C35.62 62.8208 37.5242 63.1503 39.5127 62.8208C41.5013 62.4913 43.5664 61.5679 45.3289 59.1694C45.6354 58.7556 45.6661 58.1426 45.417 57.4836C45.1603 56.8322 44.6086 56.2651 44.2178 56.1042C43.9846 55.9943 43.7346 55.9243 43.4783 55.8973V55.8897Z" fill="#EEEEEE"/>
</svg>
