<svg width="92" height="92" viewBox="0 0 92 92" fill="none" xmlns="http://www.w3.org/2000/svg">
<path d="M46.0176 62.0691C69.811 62.0691 89.1216 54.8851 89.1216 45.9769C89.1216 37.0688 69.811 29.8848 46.0176 29.8848C22.2242 29.8848 2.91357 37.0688 2.91357 45.9769C2.91357 54.8851 22.2242 62.0691 46.0176 62.0691Z" stroke="#91D7E3" stroke-width="3.31262" stroke-linecap="round" stroke-linejoin="round"/>
<path d="M31.7655 54.0232C43.6622 74.1384 59.6969 86.8972 67.5705 82.4719C75.4442 77.989 72.1683 58.1037 60.2716 37.9311C48.3749 17.8159 32.3402 5.05709 24.4665 9.48243C16.5929 13.9652 19.8688 33.8506 31.7655 54.0232Z" stroke="#91D7E3" stroke-width="3.31262" stroke-linecap="round" stroke-linejoin="round"/>
<path d="M31.7655 37.9311C19.8688 58.0463 16.5929 77.989 24.4665 82.4719C32.3402 86.8972 48.3749 74.1384 60.2716 54.0232C72.1683 33.908 75.4442 13.9652 67.5705 9.48243C59.6969 5.05709 43.6622 17.8159 31.7655 37.9311Z" stroke="#91D7E3" stroke-width="3.31262" stroke-linecap="round" stroke-linejoin="round"/>
<path d="M48.8912 45.9771C48.8912 46.7392 48.5885 47.4702 48.0496 48.0091C47.5107 48.548 46.7798 48.8507 46.0176 48.8507C45.2555 48.8507 44.5246 48.548 43.9857 48.0091C43.4468 47.4702 43.144 46.7392 43.144 45.9771C43.144 45.215 43.4468 44.4841 43.9857 43.9452C44.5246 43.4063 45.2555 43.1035 46.0176 43.1035C46.7798 43.1035 47.5107 43.4063 48.0496 43.9452C48.5885 44.4841 48.8912 45.215 48.8912 45.9771Z" stroke="#91D7E3" stroke-width="3.31262" stroke-linecap="round" stroke-linejoin="round"/>
</svg>
