<svg width="93" height="92" viewBox="0 0 93 92" fill="none" xmlns="http://www.w3.org/2000/svg">
<g clip-path="url(#clip0_441_176)">
<path d="M46.1192 18.3921C33.8583 18.3921 26.198 24.52 23.1304 36.781C27.7267 30.6523 33.0924 28.3541 39.2211 29.8865C42.7204 30.7586 45.2212 33.296 47.9906 36.1078C52.4979 40.6819 57.7149 45.9772 69.108 45.9772C81.3682 45.9772 89.0292 39.8485 92.0968 27.5847C87.499 33.7165 82.1352 36.0159 76.0053 34.4828C72.5067 33.61 70.0089 31.0733 67.2358 28.2615C62.7315 23.6874 57.5159 18.3921 46.1192 18.3921ZM23.1304 45.9772C10.8702 45.9772 3.20917 52.1059 0.141602 64.3697C4.73888 58.2379 10.1025 55.9385 16.2323 57.4716C19.7316 58.3445 22.2324 60.8811 25.0018 63.693C29.5091 68.267 34.7261 73.5623 46.1192 73.5623C58.3794 73.5623 66.0404 67.4344 69.108 55.1734C64.5102 61.3024 59.1464 63.6005 53.0166 62.0679C49.5179 61.1958 47.0201 58.6584 44.247 55.8466C39.7427 51.2725 34.5271 45.9772 23.1304 45.9772Z" fill="#38BDF8"/>
</g>
<defs>
<clipPath id="clip0_441_176">
<rect width="91.9552" height="91.9552" fill="white" transform="translate(0.138672)"/>
</clipPath>
</defs>
</svg>
