<svg width="92" height="92" viewBox="0 0 92 92" fill="none" xmlns="http://www.w3.org/2000/svg">
<path d="M11.4946 25.8626C11.4946 22.052 13.0084 18.3974 15.7029 15.7029C18.3974 13.0084 22.052 11.4946 25.8626 11.4946H66.093C69.9036 11.4946 73.5582 13.0084 76.2527 15.7029C78.9472 18.3974 80.461 22.052 80.461 25.8626V66.093C80.461 69.9036 78.9472 73.5582 76.2527 76.2527C73.5582 78.9472 69.9036 80.461 66.093 80.461H25.8626C22.052 80.461 18.3974 78.9472 15.7029 76.2527C13.0084 73.5582 11.4946 69.9036 11.4946 66.093V25.8626ZM43.1042 34.4834C42.3421 34.4834 41.6112 34.7862 41.0723 35.3251C40.5334 35.864 40.2306 36.5949 40.2306 37.357V60.3458C40.2306 61.1079 39.9279 61.8389 39.389 62.3778C38.8501 62.9167 38.1191 63.2194 37.357 63.2194H31.6098C30.8477 63.2194 30.1168 63.5222 29.5779 64.0611C29.039 64.6 28.7362 65.3309 28.7362 66.093C28.7362 66.8551 29.039 67.5861 29.5779 68.125C30.1168 68.6639 30.8477 68.9666 31.6098 68.9666H37.357C39.6434 68.9666 41.8361 68.0584 43.4528 66.4416C45.0696 64.8249 45.9778 62.6322 45.9778 60.3458V37.357C45.9778 36.5949 45.6751 35.864 45.1362 35.3251C44.5973 34.7862 43.8663 34.4834 43.1042 34.4834ZM48.8514 43.1042V45.9778C48.8514 48.2642 49.7597 50.4569 51.3764 52.0736C52.9931 53.6904 55.1858 54.5986 57.4722 54.5986H60.3458C61.1079 54.5986 61.8389 54.9014 62.3778 55.4403C62.9167 55.9792 63.2194 56.7101 63.2194 57.4722V60.3458C63.2194 61.1079 62.9167 61.8389 62.3778 62.3778C61.8389 62.9167 61.1079 63.2194 60.3458 63.2194H51.725C50.9629 63.2194 50.232 63.5222 49.6931 64.0611C49.1542 64.6 48.8514 65.3309 48.8514 66.093C48.8514 66.8551 49.1542 67.5861 49.6931 68.125C50.232 68.6639 50.9629 68.9666 51.725 68.9666H60.3458C62.6322 68.9666 64.8249 68.0584 66.4416 66.4416C68.0584 64.8249 68.9666 62.6322 68.9666 60.3458V57.4722C68.9666 55.1858 68.0584 52.9931 66.4416 51.3764C64.8249 49.7597 62.6322 48.8514 60.3458 48.8514H57.4722C56.7101 48.8514 55.9792 48.5487 55.4403 48.0098C54.9014 47.4709 54.5986 46.7399 54.5986 45.9778V43.1042C54.5986 42.3421 54.9014 41.6112 55.4403 41.0723C55.9792 40.5334 56.7101 40.2306 57.4722 40.2306H66.093C66.8551 40.2306 67.5861 39.9279 68.125 39.389C68.6639 38.8501 68.9666 38.1191 68.9666 37.357C68.9666 36.5949 68.6639 35.864 68.125 35.3251C67.5861 34.7862 66.8551 34.4834 66.093 34.4834H57.4722C55.1858 34.4834 52.9931 35.3917 51.3764 37.0084C49.7597 38.6251 48.8514 40.8178 48.8514 43.1042Z" fill="#EEEEEE"/>
</svg>
