<svg width="100" height="100" viewBox="0 0 100 100" fill="none" xmlns="http://www.w3.org/2000/svg">
<path d="M83.3335 16.6665H16.6668C12.0835 16.6665 8.37516 20.4165 8.37516 24.9998L8.3335 74.9998C8.3335 79.5832 12.0835 83.3332 16.6668 83.3332H83.3335C87.9168 83.3332 91.6668 79.5832 91.6668 74.9998V24.9998C91.6668 20.4165 87.9168 16.6665 83.3335 16.6665ZM81.6668 34.3748L52.2085 52.7915C50.8752 53.6248 49.1252 53.6248 47.7918 52.7915L18.3335 34.3748C17.9157 34.1403 17.5498 33.8234 17.258 33.4434C16.9662 33.0634 16.7546 32.6281 16.6359 32.1639C16.5172 31.6997 16.4939 31.2162 16.5675 30.7428C16.641 30.2693 16.8099 29.8157 17.0638 29.4094C17.3178 29.0031 17.6515 28.6526 18.0449 28.379C18.4382 28.1054 18.883 27.9145 19.3522 27.8177C19.8215 27.721 20.3055 27.7205 20.775 27.8163C21.2444 27.912 21.6896 28.1021 22.0835 28.3748L50.0002 45.8332L77.9168 28.3748C78.3107 28.1021 78.7559 27.912 79.2254 27.8163C79.6948 27.7205 80.1788 27.721 80.6481 27.8177C81.1174 27.9145 81.5621 28.1054 81.9555 28.379C82.3488 28.6526 82.6826 29.0031 82.9365 29.4094C83.1904 29.8157 83.3593 30.2693 83.4329 30.7428C83.5064 31.2162 83.4831 31.6997 83.3644 32.1639C83.2457 32.6281 83.0341 33.0634 82.7423 33.4434C82.4505 33.8234 82.0846 34.1403 81.6668 34.3748Z" fill="#0BBCCF"/>
</svg>
