<svg width="93" height="92" viewBox="0 0 93 92" fill="none" xmlns="http://www.w3.org/2000/svg">
<path d="M80.361 11.8739C77.5513 9.06413 74.1706 7.66054 70.2191 7.66309H22.3756C18.4216 7.66309 15.0409 9.06668 12.2337 11.8739C9.42399 14.6836 8.0204 18.0642 8.02295 22.0158V69.8593C8.02295 73.8133 9.42655 77.194 12.2337 80.0012C15.0435 82.8109 18.4241 84.2145 22.3756 84.2119H33.5405C34.2685 84.2119 34.8164 84.1864 35.1842 84.1353C35.6126 84.0507 35.9992 83.8222 36.28 83.4878C36.6453 83.1046 36.8279 82.5491 36.8279 81.8211L36.8011 78.4303C36.7858 76.2693 36.7781 74.5579 36.7781 73.2961L35.6287 73.4953C34.9007 73.6281 33.9799 73.6869 32.8662 73.6716C31.7041 73.6494 30.5457 73.5328 29.4025 73.3229C28.1845 73.102 27.0381 72.5893 26.0615 71.8286C25.0364 71.0534 24.2719 69.9842 23.8699 68.7635L23.3718 67.614C22.9504 66.7082 22.4231 65.8555 21.8009 65.0738C21.0857 64.144 20.3628 63.5131 19.6323 63.181L19.2875 62.932C19.048 62.7585 18.8294 62.558 18.6361 62.3343C18.4514 62.1265 18.3002 61.8912 18.1878 61.6369C18.0882 61.4019 18.1712 61.2104 18.4369 61.0622C18.7025 60.909 19.1853 60.8336 19.8852 60.8362L20.8814 60.9894C21.5455 61.1197 22.3667 61.5169 23.345 62.181C24.3337 62.8551 25.1597 63.7413 25.7626 64.7749C26.5289 66.1338 27.451 67.1721 28.529 67.8899C29.6094 68.6051 30.6976 68.9627 31.7934 68.9627C32.8892 68.9627 33.8368 68.8797 34.6363 68.7137C35.4106 68.5532 36.163 68.3011 36.8777 67.9627C37.1766 65.7379 37.9901 64.0265 39.3184 62.8285C37.5958 62.6583 35.8886 62.3586 34.211 61.932C32.574 61.4828 30.9998 60.8302 29.5251 59.9894C27.982 59.1493 26.619 58.0141 25.5136 56.6484C24.451 55.3201 23.5787 53.5768 22.8967 51.4184C22.2173 49.2575 21.8775 46.7645 21.8775 43.9394C21.8775 39.9215 23.1892 36.4987 25.8124 33.6711C24.5864 30.6493 24.7026 27.2623 26.1611 23.51C27.1266 23.2086 28.5558 23.4321 30.4485 24.1805C32.3413 24.9289 33.7283 25.5675 34.6095 26.0963C35.4907 26.6327 36.197 27.0822 36.7283 27.4449C39.8429 26.5765 43.0621 26.1408 46.2955 26.1499C49.5854 26.1499 52.7757 26.5816 55.8665 27.4449L57.7592 26.2495C59.2151 25.3755 60.7508 24.6416 62.3455 24.0579C64.1054 23.3938 65.4515 23.2112 66.3838 23.51C67.8781 27.2649 68.0097 30.6532 66.7785 33.6749C69.4043 36.4974 70.7172 39.9202 70.7172 43.9432C70.7172 46.7683 70.3762 49.2677 69.6942 51.4414C69.0148 53.6177 68.1348 55.3623 67.0543 56.6752C65.9263 58.0202 64.5583 59.144 63.0198 59.9894C61.4106 60.886 59.8486 61.5335 58.3339 61.932C56.6565 62.3599 54.9492 62.6609 53.2266 62.8324C54.9507 64.3266 55.8141 66.6843 55.8167 69.9052V81.8211C55.8167 82.383 55.8997 82.839 56.0657 83.1889C56.1432 83.3569 56.2537 83.5076 56.3906 83.632C56.5275 83.7564 56.688 83.852 56.8626 83.9131C57.2279 84.0459 57.5523 84.1276 57.8358 84.1583C58.1194 84.1941 58.5255 84.2107 59.0542 84.2081H70.2191C74.1732 84.2081 77.5538 82.8045 80.361 79.9973C83.1682 77.1901 84.5718 73.8095 84.5718 69.8554V22.0158C84.5718 18.0617 83.1708 14.6811 80.361 11.8739Z" fill="#F5F5F5"/>
</svg>
