<svg width="78" height="92" viewBox="0 0 78 92" fill="none" xmlns="http://www.w3.org/2000/svg">
<g clip-path="url(#clip0_441_156)">
<path d="M77.108 18.0259L70.1512 84.3457L38.8799 91.723L7.69474 84.3559L0.745117 18.0259H77.108Z" fill="#E44D26"/>
<path d="M38.9263 86.0835L64.1951 80.1222L70.1398 23.4487H38.9263V86.0835Z" fill="#F16529"/>
<path d="M25.4027 39.7196H38.9266V31.5845H14.9551L15.1838 33.7669L17.5335 56.1852H38.9266V48.0501H26.2765L25.4027 39.7196ZM27.5573 60.2528H17.9607L19.2999 73.0262L38.8826 77.652L38.9266 77.6418V69.1778L38.8847 69.1873L28.238 66.7409L27.5573 60.2528Z" fill="#EBEBEB"/>
<path d="M7.84961 0H12.7078V4.08449H17.152V0H22.0105V12.3689H17.1523V8.22706H12.7081V12.3689H7.84991L7.84961 0ZM28.3988 4.10181H24.1226V0H37.5369V4.10181H33.2579V12.3689H28.3997V4.10181H28.3988ZM39.6657 0H44.7314L47.8474 4.34609L50.9605 0H56.0282V12.3689H51.1898V6.23818L47.8474 10.636H47.7636L44.4192 6.23818V12.3689H39.6657V0ZM58.4459 0H63.3056V8.28055H70.1376V12.3689H58.4456L58.4459 0Z" fill="#EBEBEB"/>
<path d="M38.8934 56.1852H50.6652L49.5553 66.7358L38.8931 69.1847V77.6482L58.4913 73.0262L58.635 71.6517L60.8818 50.2346L61.115 48.0501H38.8934V56.1852ZM38.8934 39.6997V39.7196H61.9848L62.1764 37.8912L62.6122 33.7669L62.8406 31.5845H38.8934V39.6997Z" fill="white"/>
</g>
<defs>
<clipPath id="clip0_441_156">
<rect width="76.6293" height="91.9552" fill="white" transform="translate(0.611816)"/>
</clipPath>
</defs>
</svg>
