<svg width="77" height="92" viewBox="0 0 77 92" fill="none" xmlns="http://www.w3.org/2000/svg">
<g clip-path="url(#clip0_441_150)">
<path d="M38.5259 91.723L7.34074 84.3559L0.391113 18.0259H76.7541L69.7972 84.3457L38.5259 91.723Z" fill="#264DE4"/>
<path d="M63.8411 80.1222L69.7858 23.4487H38.5723V86.0835L63.8411 80.1222Z" fill="#2965F1"/>
<path d="M16.3228 48.0501L17.1795 56.1852H38.5726V48.0501H16.3228ZM14.6011 31.5845L15.47 39.7196H38.5726V31.5845H14.6011ZM38.5726 69.1778L38.5307 69.1873L27.884 66.7409L27.2033 60.2528H17.6067L18.9459 73.0262L38.5286 77.652L38.5726 77.6418V69.1778Z" fill="#EBEBEB"/>
<path d="M18.3628 0H29.941V4.12041H23.2048V8.24081H29.9416V12.361H18.3628V0ZM32.257 0H43.8355V3.58294H37.099V4.29948H43.8355V12.5403H32.2573V8.77777H38.9937V8.06123H32.2567L32.257 0ZM46.1514 0H57.7299V3.58294H50.9934V4.29948H57.7299V12.5403H46.1514V8.77777H52.8879V8.06123H46.1517L46.1514 0Z" fill="#EBEBEB"/>
<path d="M60.761 48.0501L62.4866 31.5845H38.5394V39.7196H52.01L51.1401 48.0501H38.5394V56.1852H50.3112L49.2013 66.7358L38.5391 69.1847V77.6482L58.1373 73.0262L58.281 71.6517L60.5278 50.2346L60.761 48.0501Z" fill="white"/>
</g>
<defs>
<clipPath id="clip0_441_150">
<rect width="76.6293" height="91.9552" fill="white" transform="translate(0.257812)"/>
</clipPath>
</defs>
</svg>
