<svg width="91" height="92" viewBox="0 0 91 92" fill="none" xmlns="http://www.w3.org/2000/svg">
<g clip-path="url(#clip0_441_178)">
<path d="M75.8138 13.4586C76.4158 13.4586 76.9932 13.2593 77.4189 12.9046C77.8446 12.5499 78.0838 12.0688 78.0838 11.5671C78.0838 11.0655 77.8446 10.5844 77.4189 10.2297C76.9932 9.87494 76.4158 9.67566 75.8138 9.67566C75.2118 9.67566 74.6344 9.87494 74.2087 10.2297C73.783 10.5844 73.5439 11.0655 73.5439 11.5671C73.5439 12.0688 73.783 12.5499 74.2087 12.9046C74.6344 13.2593 75.2118 13.4586 75.8138 13.4586ZM78.6949 29.7545C78.6949 29.7545 75.8138 17.6781 56.9558 20.9518C55.0351 15.4956 55.3843 11.4944 59.575 7.78418C65.2498 2.76448 74.155 5.52895 74.155 5.52895V1.38224C71.012 0.218248 68.0436 0 64.726 0C52.5905 0 45.868 7.56593 42.9869 12.6584L8.85047 64.9652L18.4541 63.4374L0.818359 91.8097L13.1284 89.9909L22.5574 67.6569C49.2729 67.6569 83.4967 59.6545 78.6949 29.7545ZM90.2192 19.6423L82.7109 13.6041L76.7742 19.6423H90.2192ZM27.01 61.1822C27.01 61.1822 27.8831 61.0367 29.4546 60.7457C31.0261 60.4547 33.2087 60.0182 35.8279 59.4362C37.1375 59.1452 38.5343 58.7815 40.0185 58.345C41.5027 57.9085 43.0742 57.472 44.5584 56.89C46.1299 56.3807 47.7014 55.726 49.2729 54.9985C50.8444 54.271 52.3286 53.4708 53.7255 52.525C54.0747 52.3068 54.424 52.0885 54.7732 51.7975L55.8208 51.07C56.432 50.5608 57.1304 50.0516 57.7416 49.4696C58.3527 48.9603 58.8765 48.3783 59.4004 47.7963L60.1861 46.9233L60.5353 46.4868L60.8846 46.0503C61.0592 45.7593 61.3211 45.4683 61.4957 45.1773C61.6703 44.8863 61.8449 44.5953 62.1068 44.3044L62.3688 43.8679L62.6307 43.4314C62.8053 43.1404 62.9799 42.8494 63.0672 42.5584L63.853 40.8124C64.0276 40.2304 64.2895 39.6484 64.4641 39.1391C64.6387 38.6299 64.726 38.0479 64.9006 37.6114C64.9879 37.1022 65.0752 36.6657 65.1625 36.1564C65.2498 35.7199 65.3371 35.2834 65.3371 34.9197C65.4245 34.5559 65.4245 34.1922 65.5118 33.8284C65.5991 32.519 65.5991 31.7915 65.5991 31.7915L66.9959 31.8642C66.9959 31.8642 66.9086 32.6645 66.8213 33.9739C66.734 34.3377 66.734 34.7014 66.6467 35.0652C66.5594 35.5017 66.5594 35.9382 66.3848 36.3747C66.2975 36.8112 66.1229 37.3204 66.0356 37.8297C65.861 38.3389 65.6864 38.8482 65.5118 39.4301C65.3371 40.0121 65.0752 40.5214 64.8133 41.1761C64.5514 41.7581 64.2895 42.3401 63.9403 42.9949L63.4164 43.8679L63.1545 44.3044L62.8926 44.7408C62.718 45.0318 62.4561 45.3228 62.2815 45.6866C62.0195 45.9776 61.8449 46.2686 61.583 46.5596C61.4957 46.7051 61.3211 46.8506 61.2338 46.9961L60.8846 47.4326L60.0988 48.3056C59.4877 48.8876 58.9638 49.4696 58.2654 49.9788C57.6543 50.5608 56.9558 50.9973 56.2574 51.5793L55.2097 52.3068C54.8605 52.525 54.5113 52.7433 54.0747 52.9615C52.5905 53.8345 51.019 54.6348 49.4475 55.3623C47.876 56.017 46.2172 56.6717 44.6457 57.181C43.0742 57.6902 41.5027 58.1267 40.0185 58.4905C38.5343 58.8542 37.1375 59.218 35.7406 59.4362C33.1214 59.9455 30.8515 60.382 29.28 60.6002C27.8831 61.0367 27.01 61.1822 27.01 61.1822Z" fill="#EEEEEE"/>
</g>
<defs>
<clipPath id="clip0_441_178">
<rect width="89.4009" height="91.9552" fill="white" transform="translate(0.818359)"/>
</clipPath>
</defs>
</svg>
