<svg width="157" height="92" viewBox="0 0 157 92" fill="none" xmlns="http://www.w3.org/2000/svg">
<g clip-path="url(#clip0_441_127)">
<path d="M77.7467 91.6903C77.2193 91.6903 76.7269 91.555 76.2695 91.3181L71.5917 88.6444C70.8882 88.2719 71.24 88.1366 71.4512 88.0689C72.4006 87.7643 72.5765 87.6964 73.5613 87.1552C73.6669 87.0873 73.8078 87.1212 73.9131 87.1889L77.5008 89.2535C77.6414 89.3211 77.8173 89.3211 77.9226 89.2535L91.9564 81.435C92.097 81.3673 92.1676 81.2317 92.1676 81.0627V65.4596C92.1676 65.2901 92.097 65.1551 91.9564 65.0871L77.9226 57.3026C77.782 57.2346 77.6061 57.2346 77.5008 57.3026L63.467 65.0871C63.3264 65.1548 63.2558 65.3241 63.2558 65.4594V81.0625C63.2558 81.198 63.3264 81.367 63.467 81.435L67.3008 83.5672C69.376 84.5825 70.6773 83.3979 70.6773 82.2134V66.8132C70.6773 66.6103 70.8532 66.407 71.0994 66.407H72.893C73.1042 66.407 73.3151 66.5763 73.3151 66.8132V82.2134C73.3151 84.8871 71.8026 86.4442 69.1648 86.4442C68.3559 86.4442 67.7229 86.4442 65.9289 85.5978L62.236 83.5672C61.3215 83.0597 60.7588 82.1117 60.7588 81.0964V65.4933C60.7588 64.478 61.3215 63.5301 62.236 63.0225L76.2695 55.204C77.149 54.7302 78.345 54.7302 79.2241 55.204L93.2577 63.0225C94.1722 63.5301 94.7351 64.478 94.7351 65.4933V81.0964C94.7351 82.1117 94.1722 83.0597 93.2577 83.5672L79.2241 91.3857C78.7668 91.589 78.2391 91.6903 77.7467 91.6903ZM82.0732 80.9611C75.9183 80.9611 74.652 78.2534 74.652 75.9519C74.652 75.7487 74.8279 75.5457 75.0741 75.5457H76.9031C77.114 75.5457 77.2899 75.681 77.2899 75.8843C77.5714 77.678 78.3803 78.558 82.1085 78.558C85.0629 78.558 86.3295 77.9149 86.3295 76.3918C86.3295 75.5118 85.9774 74.8689 81.3699 74.4288C77.5361 74.0563 75.1444 73.2442 75.1444 70.2996C75.1444 67.5579 77.5364 65.9332 81.5458 65.9332C86.0477 65.9332 88.2637 67.4226 88.5452 70.6715C88.5452 70.7732 88.51 70.8748 88.4396 70.9764C88.369 71.044 88.2637 71.1117 88.1581 71.1117H86.3292C86.1533 71.1117 85.9774 70.9764 85.9424 70.8071C85.5203 68.9457 84.4299 68.3363 81.5458 68.3363C78.31 68.3363 77.9229 69.4196 77.9229 70.2317C77.9229 71.2133 78.3803 71.5179 82.7415 72.0593C87.0678 72.6011 89.1079 73.3795 89.1079 76.2901C89.0726 79.2687 86.5404 80.9611 82.0732 80.9611Z" fill="#539E43"/>
<path d="M34.2037 30.6651C34.2037 30.0559 33.8519 29.4802 33.2892 29.1756L18.3762 20.9172C18.1297 20.7817 17.8485 20.714 17.5673 20.68H17.4264C17.1452 20.68 16.8637 20.7817 16.6175 20.9172L1.70453 29.1756C1.14153 29.4802 0.790039 30.0557 0.790039 30.6651L0.82534 52.8681C0.82534 53.1727 1.00124 53.4773 1.28243 53.6129C1.56393 53.7821 1.91542 53.7821 2.16192 53.6129L11.0253 48.739C11.588 48.4344 11.9398 47.8589 11.9398 47.2498V36.8589C11.9398 36.2497 12.2913 35.6743 12.8543 35.3697L16.6175 33.2712C16.899 33.1019 17.2155 33.0339 17.532 33.0339C17.8485 33.0339 18.165 33.1019 18.4115 33.2712L22.1748 35.3697C22.7378 35.6743 23.0892 36.2494 23.0892 36.8589V47.2498C23.0892 47.8589 23.441 48.4344 24.0037 48.739L32.8671 53.6129C33.004 53.6958 33.1626 53.7398 33.3244 53.7398C33.4862 53.7398 33.6447 53.6958 33.7816 53.6129C34.0631 53.4773 34.239 53.1727 34.239 52.8681L34.2037 30.6651ZM105.885 0.101692C105.603 -0.0338975 105.252 -0.0338975 105.005 0.101692C104.724 0.27096 104.548 0.541555 104.548 0.846119V22.8465C104.548 23.0495 104.443 23.2524 104.232 23.388C104.021 23.4893 103.81 23.4893 103.599 23.388L99.8704 21.3234C99.597 21.1737 99.2879 21.095 98.9734 21.095C98.6588 21.095 98.3497 21.1737 98.0764 21.3234L83.1634 29.6158C82.6007 29.9204 82.2489 30.4958 82.2489 31.1049V47.6557C82.2489 48.2648 82.6007 48.8406 83.1634 49.1451L98.0764 57.4375C98.3497 57.5872 98.6588 57.6659 98.9734 57.6659C99.2879 57.6659 99.597 57.5872 99.8704 57.4375L114.783 49.1451C115.346 48.8406 115.698 48.2651 115.698 47.6557V6.39711C115.698 5.75401 115.346 5.17885 114.783 4.87399L105.885 0.101692ZM104.513 42.2066C104.513 42.3759 104.443 42.5112 104.302 42.5788L99.2021 45.4218C99.1309 45.4554 99.0526 45.4728 98.9734 45.4728C98.8941 45.4728 98.8159 45.4554 98.7447 45.4218L93.6448 42.5788C93.5039 42.5112 93.4336 42.3419 93.4336 42.2066V36.5203C93.4336 36.3511 93.5039 36.2158 93.6448 36.1481L98.7447 33.3048C98.8159 33.2713 98.8941 33.2539 98.9734 33.2539C99.0526 33.2539 99.1309 33.2713 99.2021 33.3048L104.302 36.1481C104.443 36.2155 104.513 36.385 104.513 36.5203V42.2066ZM155.513 36.385C156.076 36.0805 156.392 35.505 156.392 34.8956V30.868C156.392 30.2589 156.04 29.6834 155.513 29.3789L140.705 21.1205C140.432 20.9708 140.123 20.8921 139.808 20.8921C139.494 20.8921 139.185 20.9708 138.911 21.1205L123.998 29.4126C123.435 29.7171 123.084 30.2926 123.084 30.9017V47.4528C123.084 48.0619 123.436 48.6373 123.998 48.9419L138.806 57.065C139.369 57.3696 140.037 57.3696 140.565 57.065L149.533 52.2593C149.815 52.1237 149.991 51.8192 149.991 51.5146C149.991 51.21 149.815 50.9055 149.533 50.7699L134.55 42.4775C134.268 42.3082 134.093 42.0376 134.093 41.7331V36.5546C134.093 36.25 134.268 35.9455 134.55 35.8099L139.228 33.2375C139.365 33.1545 139.523 33.1105 139.685 33.1105C139.847 33.1105 140.005 33.1545 140.142 33.2375L144.82 35.8099C145.102 35.9791 145.277 36.2497 145.277 36.5546V40.6161C145.277 40.9207 145.453 41.2253 145.735 41.3606C145.872 41.4435 146.03 41.4876 146.192 41.4876C146.354 41.4876 146.512 41.4435 146.649 41.3606L155.513 36.385Z" fill="#EBEBEB"/>
<path d="M139.579 35.6064C139.632 35.5733 139.693 35.5557 139.755 35.5557C139.818 35.5557 139.879 35.5733 139.931 35.6064L142.78 37.1972C142.886 37.2652 142.956 37.3665 142.956 37.5018V40.6836C142.956 40.8189 142.886 40.9205 142.78 40.9882L139.931 42.5789C139.879 42.6121 139.818 42.6297 139.755 42.6297C139.693 42.6297 139.632 42.6121 139.579 42.5789L136.731 40.9882C136.625 40.9205 136.555 40.8189 136.555 40.6836V37.5021C136.555 37.3665 136.625 37.2649 136.731 37.1975L139.579 35.6064Z" fill="#539E43"/>
<path d="M59.1407 21.1883C58.8674 21.0386 58.5583 20.96 58.2439 20.96C57.9294 20.96 57.6204 21.0386 57.347 21.1883L42.5396 29.4124C41.9767 29.717 41.6602 30.2924 41.6602 30.9015V47.3849C41.6602 47.9941 42.012 48.5695 42.5396 48.8741L57.347 57.0988C57.6204 57.2484 57.9294 57.3271 58.2439 57.3271C58.5583 57.3271 58.8674 57.2484 59.1407 57.0988L73.9484 48.8741C74.5111 48.5695 74.8279 47.9941 74.8279 47.3849V30.9018C74.8279 30.2927 74.4758 29.7172 73.9484 29.4127L59.1407 21.1883Z" fill="url(#paint0_linear_441_127)"/>
<mask id="mask0_441_127" style="mask-type:luminance" maskUnits="userSpaceOnUse" x="41" y="20" width="34" height="38">
<path d="M59.1407 21.1883C58.8674 21.0386 58.5583 20.96 58.2439 20.96C57.9294 20.96 57.6204 21.0386 57.347 21.1883L42.5396 29.4124C41.9767 29.717 41.6602 30.2924 41.6602 30.9015V47.3849C41.6602 47.9941 42.012 48.5695 42.5396 48.8741L57.347 57.0988C57.6204 57.2484 57.9294 57.3271 58.2439 57.3271C58.5583 57.3271 58.8674 57.2484 59.1407 57.0988L73.9484 48.8741C74.5111 48.5695 74.8279 47.9941 74.8279 47.3849V30.9018C74.8279 30.2927 74.4758 29.7172 73.9484 29.4127L59.1407 21.1883Z" fill="white"/>
</mask>
<g mask="url(#mask0_441_127)">
<path d="M73.9833 29.4127L59.1056 21.1883C58.9595 21.1172 58.8062 21.0605 58.6482 21.019L41.9766 48.5025C42.1147 48.6647 42.2815 48.8022 42.4693 48.9087L57.347 57.1334C57.7691 57.3703 58.2615 57.438 58.7185 57.3024L74.3704 29.7516C74.2648 29.6163 74.1239 29.5141 73.9833 29.4127Z" fill="url(#paint1_linear_441_127)"/>
</g>
<mask id="mask1_441_127" style="mask-type:luminance" maskUnits="userSpaceOnUse" x="41" y="20" width="34" height="38">
<path d="M59.1407 21.1883C58.8674 21.0386 58.5583 20.96 58.2439 20.96C57.9294 20.96 57.6204 21.0386 57.347 21.1883L42.5396 29.4124C41.9767 29.717 41.6602 30.2924 41.6602 30.9015V47.3849C41.6602 47.9941 42.012 48.5695 42.5396 48.8741L57.347 57.0988C57.6204 57.2484 57.9294 57.3271 58.2439 57.3271C58.5583 57.3271 58.8674 57.2484 59.1407 57.0988L73.9484 48.8741C74.5111 48.5695 74.8279 47.9941 74.8279 47.3849V30.9018C74.8279 30.2927 74.4758 29.7172 73.9484 29.4127L59.1407 21.1883Z" fill="white"/>
</mask>
<g mask="url(#mask1_441_127)">
<path fill-rule="evenodd" clip-rule="evenodd" d="M74.0185 48.8748C74.4405 48.6378 74.757 48.2317 74.8979 47.7918L58.5774 20.9854C58.1554 20.9177 57.698 20.9514 57.3115 21.1883L42.5391 29.3794L58.4718 57.3364C58.7036 57.3001 58.9287 57.2318 59.1401 57.1334L74.0185 48.8748Z" fill="url(#paint2_linear_441_127)"/>
<path fill-rule="evenodd" clip-rule="evenodd" d="M74.0188 48.8747L59.1761 57.0995C58.9665 57.2021 58.7407 57.2707 58.5078 57.3024L58.7893 57.8102L75.2498 48.6381V48.4349L74.8277 47.7578C74.7574 48.2316 74.4409 48.6378 74.0188 48.8747Z" fill="url(#paint3_linear_441_127)"/>
<path fill-rule="evenodd" clip-rule="evenodd" d="M74.0188 48.8747L59.1761 57.0995C58.9665 57.2021 58.7407 57.2707 58.5078 57.3024L58.7893 57.8102L75.2498 48.6381V48.4349L74.8277 47.7578C74.7574 48.2316 74.4409 48.6378 74.0188 48.8747Z" fill="url(#paint4_linear_441_127)"/>
</g>
</g>
<defs>
<linearGradient id="paint0_linear_441_127" x1="2303.3" y1="656.912" x2="767.592" y2="3164.51" gradientUnits="userSpaceOnUse">
<stop stop-color="#41873F"/>
<stop offset="0.3288" stop-color="#418B3D"/>
<stop offset="0.6352" stop-color="#419637"/>
<stop offset="0.9319" stop-color="#3FA92D"/>
<stop offset="1" stop-color="#3FAE2A"/>
</linearGradient>
<linearGradient id="paint1_linear_441_127" x1="1443.89" y1="2026.55" x2="5436.03" y2="-227.355" gradientUnits="userSpaceOnUse">
<stop offset="0.1376" stop-color="#41873F"/>
<stop offset="0.4032" stop-color="#54A044"/>
<stop offset="0.7136" stop-color="#66B848"/>
<stop offset="0.9081" stop-color="#6CC04A"/>
</linearGradient>
<linearGradient id="paint2_linear_441_127" x1="-99.4841" y1="1839.94" x2="3326.93" y2="1839.94" gradientUnits="userSpaceOnUse">
<stop offset="0.09192" stop-color="#6CC04A"/>
<stop offset="0.2864" stop-color="#66B848"/>
<stop offset="0.5968" stop-color="#54A044"/>
<stop offset="0.8624" stop-color="#41873F"/>
</linearGradient>
<linearGradient id="paint3_linear_441_127" x1="-1680.33" y1="553.142" x2="1746.05" y2="553.142" gradientUnits="userSpaceOnUse">
<stop offset="0.09192" stop-color="#6CC04A"/>
<stop offset="0.2864" stop-color="#66B848"/>
<stop offset="0.5968" stop-color="#54A044"/>
<stop offset="0.8624" stop-color="#41873F"/>
</linearGradient>
<linearGradient id="paint4_linear_441_127" x1="2245.23" y1="-2073.99" x2="1439.3" y2="2314.44" gradientUnits="userSpaceOnUse">
<stop stop-color="#41873F"/>
<stop offset="0.3288" stop-color="#418B3D"/>
<stop offset="0.6352" stop-color="#419637"/>
<stop offset="0.9319" stop-color="#3FA92D"/>
<stop offset="1" stop-color="#3FAE2A"/>
</linearGradient>
<clipPath id="clip0_441_127">
<rect width="155.813" height="91.9552" fill="white" transform="translate(0.719727)"/>
</clipPath>
</defs>
</svg>
