<svg width="56" height="68" viewBox="0 0 56 68" fill="none" xmlns="http://www.w3.org/2000/svg">
<g clip-path="url(#clip0_441_164)">
<path d="M14.4839 67.4774C22.0739 67.4774 28.2339 62.4747 28.2339 56.3107V45.144H14.4839C6.89389 45.144 0.733887 50.1467 0.733887 56.3107C0.733887 62.4747 6.89389 67.4774 14.4839 67.4774Z" fill="#0ACF83"/>
<path d="M0.733887 33.9777C0.733887 27.8137 6.89389 22.811 14.4839 22.811H28.2339V45.1444H14.4839C6.89389 45.1444 0.733887 40.1417 0.733887 33.9777Z" fill="#A259FF"/>
<path d="M0.733887 11.6442C0.733887 5.48021 6.89389 0.477539 14.4839 0.477539H28.2339V22.8109H14.4839C6.89389 22.8109 0.733887 17.8082 0.733887 11.6442Z" fill="#F24E1E"/>
<path d="M28.2339 0.477539H41.9839C49.5739 0.477539 55.7339 5.48021 55.7339 11.6442C55.7339 17.8082 49.5739 22.8109 41.9839 22.8109H28.2339V0.477539Z" fill="#FF7262"/>
<path d="M55.7339 33.9777C55.7339 40.1417 49.5739 45.1444 41.9839 45.1444C34.3939 45.1444 28.2339 40.1417 28.2339 33.9777C28.2339 27.8137 34.3939 22.811 41.9839 22.811C49.5739 22.811 55.7339 27.8137 55.7339 33.9777Z" fill="#1ABCFE"/>
</g>
<defs>
<clipPath id="clip0_441_164">
<rect width="55" height="67" fill="white" transform="translate(0.733887 0.477539)"/>
</clipPath>
</defs>
</svg>
