<svg width="197" height="92" viewBox="0 0 197 92" fill="none" xmlns="http://www.w3.org/2000/svg">
<g clip-path="url(#clip0_441_162)">
<path d="M149.106 21.2797C153.701 21.2797 157.948 21.9326 163.1 23.3335L159.429 33.7095C156.574 32.9621 159.2 33.6094 157.043 33.3294V34.8243L157.182 40.8944L157.251 48.7409C157.32 50.7017 157.32 52.6636 157.39 54.625V58.5482C157.39 70.8779 156.625 76.6685 154.327 81.4317C150.986 88.4378 145.207 91.8935 136.992 91.8935C132.815 91.8935 129.195 91.0531 125.435 89.0912V75.8281H125.436C129.196 78.4429 132.955 79.6568 136.923 79.6568C143.954 79.6568 146.948 75.8281 146.948 66.6737V66.3937C144.86 67.7941 142.771 68.3551 139.987 68.3551C130.588 68.3551 124.6 60.0421 124.6 46.8725C124.6 30.5255 133.442 21.2791 149.105 21.2791M51.8567 22.2131V55.5579C51.8567 67.0471 51.2299 72.5573 49.3506 77.3215C47.6096 81.8987 45.3118 84.7935 40.5784 87.9698L30.6227 81.6182C35.3569 78.6294 37.6539 76.0151 39.1158 71.9968C40.6478 67.8871 41.1356 63.1234 41.1356 50.6077V22.2136L51.8567 22.2131ZM179.744 20.9987C190.465 20.9987 197.009 30.0596 197.009 44.7236C197.009 59.7626 190.187 69.196 179.326 69.196C168.604 69.196 161.99 60.1356 161.99 45.5651C161.991 30.432 168.814 20.9987 179.744 20.9987ZM72.535 21.1867C78.035 21.1867 81.6549 23.1475 83.2562 26.9773C84.1609 29.1256 84.4393 31.9275 84.4393 37.9061V67.1406C79.6351 68.0746 73.5788 68.729 69.1234 68.729C60.143 68.729 56.1042 64.5243 56.1042 55.1849C56.1042 45.0966 61.4647 40.4269 74.6234 38.932V35.7562C74.6234 33.1414 73.6489 32.2079 70.9334 32.2079C66.9654 32.2079 62.5096 33.7018 58.3322 36.5982V25.4824C63.0671 22.4946 67.5918 21.1867 72.535 21.1867ZM34.8005 0V66.5812C29.301 67.9821 25.2626 68.5426 20.8772 68.5426C7.78828 68.5426 0.96582 60.6031 0.96582 45.3781C0.96582 30.7135 8.2064 21.1872 19.415 21.1872C21.1552 21.1872 22.4781 21.3732 24.0794 21.9336V0H34.8005ZM106.509 21.1867C112.009 21.1867 115.977 22.8676 118.345 26.1368C120.573 29.2186 121.268 32.5809 121.268 39.774V67.9816H110.547V40.3344C110.547 34.8238 109.155 32.7679 105.326 32.7679C103.864 32.7679 102.541 32.9549 100.382 33.7953V67.9816H89.6613V24.4549C95.9963 22.2136 101.217 21.1867 106.509 21.1867ZM75.1108 48.3669C68.0092 49.3008 65.7118 50.7957 65.7118 54.5315C65.7118 57.3333 67.0351 58.6412 69.9589 58.6412C71.5602 58.6412 73.0221 58.4547 75.1108 57.9878V48.3669ZM179.605 32.5814C175.357 32.5814 172.92 37.1586 172.92 45.0971C172.921 53.0371 175.357 57.6138 179.534 57.6138C183.642 57.6138 186.079 53.0366 186.079 45.0971C186.079 37.2516 183.712 32.5814 179.605 32.5814ZM20.4595 32.7679C15.0292 32.7679 11.896 37.2516 11.896 45.0971C11.896 52.7566 14.8903 56.9598 20.3898 56.9598C21.573 56.9598 22.5478 56.8663 24.0794 56.5869V33.5148C22.8262 32.9549 21.782 32.7679 20.4595 32.7679ZM139.429 34.9152C136.854 36.8776 135.531 40.4274 135.531 45.4706C135.531 52.6636 138.177 56.7728 142.911 56.7728C144.373 56.7728 145.557 56.3988 146.948 55.8389V50.8892C146.948 49.2078 146.88 47.3389 146.88 45.3781L146.81 38.7465L146.74 33.9828V32.8614H145.626C143.538 32.7679 141.101 33.5148 139.43 34.9157M51.8567 0.0770574V14.8351H41.1356V0.0765437L51.8567 0.0770574Z" fill="#EEEEEE"/>
</g>
<defs>
<clipPath id="clip0_441_162">
<rect width="196.043" height="91.9552" fill="white" transform="translate(0.96582)"/>
</clipPath>
</defs>
</svg>
