<svg width="93" height="92" viewBox="0 0 93 92" fill="none" xmlns="http://www.w3.org/2000/svg">
<g clip-path="url(#clip0_441_170)">
<path d="M70.8617 0H22.0105C10.1077 0 0.458496 9.64916 0.458496 21.552V70.4032C0.458496 82.306 10.1077 91.9552 22.0105 91.9552H70.8617C82.7645 91.9552 92.4137 82.306 92.4137 70.4032V21.552C92.4137 9.64916 82.7645 0 70.8617 0Z" fill="url(#paint0_linear_441_170)"/>
<g filter="url(#filter0_d_441_170)">
<path d="M47.8622 70.4593C58.5218 70.4593 64.9454 65.2398 64.9454 56.6312C64.9454 50.1236 60.3624 45.4127 53.5566 44.6666V44.3958C58.5567 43.5822 62.4802 38.9388 62.4802 33.7534C62.4802 26.3647 56.6472 21.5518 47.7581 21.5518H27.7578V70.4593H47.8622ZM35.5356 27.7541H45.883C51.5081 27.7541 54.7025 30.2624 54.7025 34.8041C54.7025 39.6508 50.9873 42.362 44.2512 42.362H35.5356V27.7541ZM35.5356 64.257V48.1581H45.8134C53.1748 48.1581 56.9942 50.8693 56.9942 56.1567C56.9942 61.4438 53.279 64.257 46.2649 64.257H35.5356Z" fill="url(#paint1_linear_441_170)"/>
<path d="M47.8622 70.4593C58.5218 70.4593 64.9454 65.2398 64.9454 56.6312C64.9454 50.1236 60.3624 45.4127 53.5566 44.6666V44.3958C58.5567 43.5822 62.4802 38.9388 62.4802 33.7534C62.4802 26.3647 56.6472 21.5518 47.7581 21.5518H27.7578V70.4593H47.8622ZM35.5356 27.7541H45.883C51.5081 27.7541 54.7025 30.2624 54.7025 34.8041C54.7025 39.6508 50.9873 42.362 44.2512 42.362H35.5356V27.7541ZM35.5356 64.257V48.1581H45.8134C53.1748 48.1581 56.9942 50.8693 56.9942 56.1567C56.9942 61.4438 53.279 64.257 46.2649 64.257H35.5356Z" stroke="white" stroke-width="1.27716"/>
</g>
</g>
<defs>
<filter id="filter0_d_441_170" x="16.9019" y="13.2502" width="58.8993" height="70.6195" filterUnits="userSpaceOnUse" color-interpolation-filters="sRGB">
<feFlood flood-opacity="0" result="BackgroundImageFix"/>
<feColorMatrix in="SourceAlpha" type="matrix" values="0 0 0 0 0 0 0 0 0 0 0 0 0 0 0 0 0 0 127 0" result="hardAlpha"/>
<feOffset dy="2.55431"/>
<feGaussianBlur stdDeviation="5.10862"/>
<feColorMatrix type="matrix" values="0 0 0 0 0 0 0 0 0 0 0 0 0 0 0 0 0 0 0.15 0"/>
<feBlend mode="normal" in2="BackgroundImageFix" result="effect1_dropShadow_441_170"/>
<feBlend mode="normal" in="SourceGraphic" in2="effect1_dropShadow_441_170" result="shape"/>
</filter>
<linearGradient id="paint0_linear_441_170" x1="0.458496" y1="0" x2="92.4137" y2="91.9552" gradientUnits="userSpaceOnUse">
<stop stop-color="#9013FE"/>
<stop offset="1" stop-color="#6B11F4"/>
</linearGradient>
<linearGradient id="paint1_linear_441_170" x1="31.2755" y1="24.7709" x2="53.8145" y2="62.8899" gradientUnits="userSpaceOnUse">
<stop stop-color="white"/>
<stop offset="1" stop-color="#F1E5FC"/>
</linearGradient>
<clipPath id="clip0_441_170">
<rect width="91.9552" height="91.9552" fill="white" transform="translate(0.458496)"/>
</clipPath>
</defs>
</svg>
